<?xml version="1.0" standalone="no"?>
<!DOCTYPE svg PUBLIC "-//W3C//DTD SVG 20010904//EN"
 "http://www.w3.org/TR/2001/REC-SVG-20010904/DTD/svg10.dtd">
<svg version="1.0" xmlns="http://www.w3.org/2000/svg"
 width="167.000000pt" height="156.000000pt" viewBox="0 0 167.000000 156.000000"
 preserveAspectRatio="xMidYMid meet">

<g transform="translate(0.000000,156.000000) scale(0.100000,-0.100000)"
fill="#000000" stroke="none">
<path d="M652 1460 c-189 -52 -356 -181 -445 -342 l-32 -58 -87 0 -88 0 0 -90
0 -90 39 0 38 0 18 -62 18 -63 20 63 c21 61 21 62 58 62 37 0 37 0 57 -62 l19
-63 19 62 c19 63 19 63 57 63 35 0 38 -2 32 -22 -4 -13 -21 -65 -37 -115 l-30
-93 -43 0 c-41 0 -44 2 -50 33 -4 17 -12 43 -17 57 -9 23 -11 22 -27 -30 l-17
-55 -44 0 -44 0 -26 80 c-14 44 -29 87 -32 95 -4 8 -7 -69 -7 -172 l-1 -187
87 -3 87 -3 33 -58 c67 -115 213 -246 328 -296 184 -81 413 -82 587 -3 143 65
264 172 333 297 l37 65 89 0 89 0 0 94 0 94 -36 -8 c-110 -25 -198 76 -149
170 22 43 68 63 132 58 l53 -5 0 94 0 93 -89 0 -88 0 -39 68 c-49 85 -169 206
-254 255 -110 64 -206 89 -350 93 -102 3 -138 0 -198 -16z m271 -104 c110 -11
231 -71 325 -160 40 -38 102 -117 102 -130 0 -3 -18 -6 -39 -6 -35 0 -46 7
-101 64 -207 216 -536 218 -752 4 -58 -58 -74 -68 -103 -68 -22 0 -35 5 -35
13 0 38 152 182 240 227 80 41 223 73 285 64 11 -1 46 -5 78 -8z m15 -200 c55
-15 130 -54 152 -80 11 -14 -14 -16 -255 -16 -198 0 -266 3 -263 12 6 17 105
70 157 84 62 17 145 17 209 0z m-440 -340 l34 -58 36 61 c33 55 40 61 69 61
l33 0 0 -115 0 -115 -34 0 c-34 0 -35 1 -38 48 l-3 47 -23 -37 c-13 -21 -31
-38 -41 -38 -9 0 -27 17 -39 38 l-22 37 0 -48 0 -48 -37 3 -38 3 -2 95 c-2
124 1 132 40 128 26 -3 36 -12 65 -62z m400 -33 c22 -54 44 -106 48 -115 5
-15 0 -18 -34 -18 -32 0 -42 4 -47 20 -5 16 -15 20 -50 20 -35 0 -45 -4 -50
-20 -5 -16 -15 -20 -46 -20 -21 0 -39 2 -39 4 0 4 90 207 97 219 2 4 21 7 42
7 l38 0 41 -97z m169 50 l42 -48 1 48 0 47 40 0 40 0 0 -115 0 -115 -32 0
c-27 0 -41 9 -75 51 l-43 51 0 -51 0 -51 -40 0 -40 0 0 115 0 115 33 0 c26 0
40 -9 74 -47z m356 -61 c26 -59 47 -111 47 -115 0 -4 -18 -7 -39 -7 -31 0 -41
4 -46 20 -5 16 -15 20 -50 20 -35 0 -45 -4 -50 -20 -5 -16 -15 -20 -46 -20
-21 0 -39 2 -39 4 0 2 13 32 29 67 15 35 38 85 49 112 20 44 23 47 59 47 l38
0 48 -108z m-965 -369 c83 -83 167 -128 281 -150 170 -34 331 17 463 147 64
62 77 70 110 70 21 0 38 -4 38 -9 0 -16 -75 -105 -126 -150 -58 -51 -162 -105
-241 -126 -73 -19 -232 -19 -303 0 -119 32 -228 103 -318 209 -52 62 -53 76
-7 76 31 0 45 -10 103 -67z m642 59 c0 -16 -108 -72 -170 -88 -98 -25 -186
-15 -279 33 -41 21 -76 44 -79 51 -3 9 54 12 262 12 146 0 266 -4 266 -8z"/>
<path d="M806 774 c-9 -22 -8 -24 9 -24 8 0 15 6 15 14 0 22 -17 28 -24 10z"/>
<path d="M1326 775 c-9 -23 -8 -25 9 -25 17 0 19 9 6 28 -7 11 -10 10 -15 -3z"/>
<path d="M1567 802 c-34 -37 -11 -92 39 -92 20 0 24 5 24 30 0 23 4 30 20 30
29 0 24 23 -7 38 -37 17 -57 15 -76 -6z"/>
</g>
</svg>
