<?xml version="1.0" standalone="no"?>
<!DOCTYPE svg PUBLIC "-//W3C//DTD SVG 20010904//EN"
 "http://www.w3.org/TR/2001/REC-SVG-20010904/DTD/svg10.dtd">
<svg version="1.0" xmlns="http://www.w3.org/2000/svg"
 width="225.000000pt" height="225.000000pt" viewBox="0 0 225.000000 225.000000"
 preserveAspectRatio="xMidYMid meet">

<g transform="translate(0.000000,225.000000) scale(0.100000,-0.100000)"
fill="#000000" stroke="none">
<path d="M0 1125 l0 -1125 1125 0 1125 0 0 1125 0 1125 -1125 0 -1125 0 0
-1125z m1717 437 c59 -31 77 -69 71 -152 -9 -124 -80 -232 -175 -266 -28 -10
-32 -13 -15 -14 72 -1 117 -62 110 -149 -11 -133 -90 -251 -197 -293 -52 -20
-75 -22 -338 -26 l-282 -4 13 44 c29 97 29 96 -6 118 l-33 20 211 0 212 0 21
85 c11 46 21 87 21 90 0 3 -76 5 -170 5 -93 0 -170 1 -170 3 0 1 9 32 19 70
l20 67 -32 18 c-31 17 -25 17 247 22 l279 5 23 85 c13 46 22 86 20 87 -2 2
-207 2 -455 1 l-453 -3 76 -87 77 -87 -23 -88 -23 -88 -103 -3 -103 -3 76 -86
c41 -47 75 -93 75 -101 0 -8 -10 -50 -22 -93 l-21 -79 -104 0 c-56 0 -103 4
-103 9 0 7 101 387 180 679 9 35 1 46 -154 220 l-20 23 604 -3 605 -3 42 -23z"/>
</g>
</svg>
